<svg xmlns="http://www.w3.org/2000/svg" viewBox="0 0 64 64" width="64" height="64">
  <rect width="64" height="64" rx="12" fill="#000000"/>
  <g transform="translate(9.00 14.41) scale(0.7904)">
    <path d="M41.2998 6.21191L56.4229 14.9414C57.5036 15.5638 58.168 16.717 58.168 17.9639C58.168 18.043 58.168 28.8598 58.1533 33.4395C58.1491 34.68 57.4846 35.8259 56.4102 36.4482C53.9122 37.8928 46.5679 42.1192 43.1846 44.0664C42.106 44.6866 40.7768 44.6846 39.6982 44.0625L30.1846 38.5479V27.2529C35.2615 28.0761 40.0117 28.8165 43.5166 29.2988C43.7834 29.3346 44.0355 29.4083 44.2666 29.5469L48.2979 31.7988C48.7646 32.0806 48.9311 32.3881 48.8281 33.166L48.5693 35.1904L50.2197 34.2031C51.557 33.3978 52.9409 32.0533 52.1924 28.4766L51.4688 24.6709C51.3678 24.1455 51.0884 23.6726 50.6787 23.332C48.3673 21.4132 41.322 16.054 41.2998 16.0371L22.6768 1.49316L32.0781 5.90234C33.1629 6.4107 34.2141 5.14725 33.5205 4.17383L30.5449 0L41.2998 6.21191ZM49.3271 26.0947C49.3018 26.5634 49.0237 27.0024 48.5635 27.2021C47.9138 27.4839 47.1608 27.1837 46.8789 26.5342C46.7675 26.2735 46.7554 25.9957 46.8184 25.7393C46.0846 25.1253 44.1167 23.4784 43.9336 23.3037C43.7591 23.1376 43.8135 22.8223 43.8135 22.8223L49.3271 26.0947ZM0 22.126C0.00527727 22.1269 4.82008 22.9746 11.4404 24.1113V26.2617L0 22.126Z" fill="#FEDD00"/>
  </g>
</svg>
